<svg xmlns="http://www.w3.org/2000/svg" width="182" height="32" viewBox="0 0 182 32">
    <defs>
        <linearGradient id="xcpx37294a" x1="26.888%" x2="76.129%" y1="12.286%" y2="93.261%">
            <stop offset="0%" stop-color="#5BB99A"/>
            <stop offset="82%" stop-color="#4D9A7F"/>
        </linearGradient>
        <linearGradient id="2z3klylwmb" x1="33.916%" x2="68.382%" y1="29.625%" y2="109.602%">
            <stop offset="0%" stop-color="#4D9A7F"/>
            <stop offset="36%" stop-color="#4D9A7F" stop-opacity=".1"/>
        </linearGradient>
    </defs>
    <g fill="none" fill-rule="evenodd">
        <g fill-rule="nonzero">
            <g>
                <path fill="#102133" d="M48.731 24.1c-1.36.877-2.953 1.326-4.571 1.29-1.547.038-3.075-.34-4.425-1.097-1.26-.741-2.27-1.843-2.898-3.164-.707-1.519-1.054-3.18-1.015-4.855-.041-1.675.306-3.336 1.015-4.855.623-1.33 1.633-2.442 2.898-3.19 1.338-.762 2.858-1.145 4.398-1.107 1.56-.053 3.106.33 4.461 1.107 1.222.752 2.143 1.906 2.606 3.264l-2.743 1.216c-.263-.918-.806-1.73-1.554-2.323-.785-.525-1.717-.785-2.66-.74-1.526-.06-2.994.588-3.978 1.755-1.065 1.393-1.594 3.123-1.49 4.873-.096 1.747.418 3.473 1.454 4.883.978 1.158 2.445 1.788 3.958 1.7 1.029.037 2.04-.265 2.88-.86.82-.632 1.41-1.515 1.683-2.514l2.743.915c-.469 1.514-1.444 2.821-2.762 3.703zM65.6 12.736c.976.958 1.49 2.292 1.408 3.657v8.695h-2.87v-7.717c0-2.358-.915-3.538-2.872-3.538-.962-.014-1.889.362-2.569 1.042-.78.863-1.175 2.004-1.097 3.164v7.086h-2.843V5.678H57.6v8.228c.405-.784 1.044-1.423 1.829-1.828.791-.404 1.67-.605 2.56-.585 1.318-.064 2.61.382 3.611 1.243zM83.931 23.14l-.182 1.93c-.527.22-1.094.329-1.664.32-.641.029-1.277-.13-1.829-.457-.503-.36-.835-.914-.914-1.527-.45.659-1.087 1.169-1.829 1.463-.868.363-1.802.54-2.743.52-1.127.056-2.24-.266-3.163-.914-.808-.611-1.26-1.584-1.207-2.596.002-1.059.508-2.054 1.362-2.679 1.153-.838 2.5-1.37 3.913-1.545l3.402-.585v-.723c.04-.72-.221-1.427-.723-1.947-.55-.49-1.276-.737-2.011-.686-1.583-.131-3.035.883-3.456 2.414l-2.231-1.18c.318-1.066 1.022-1.975 1.975-2.55 1.107-.646 2.376-.963 3.657-.915 1.483-.099 2.955.314 4.17 1.17 1.048.866 1.616 2.183 1.526 3.539v6.062c-.019.27.063.536.229.75.212.181.49.267.768.237.32.007.639-.027.95-.1zm-5.952-.621c.67-.367 1.089-1.066 1.098-1.829v-1.627l-2.917.585c-.735.105-1.439.363-2.066.759-.43.283-.684.766-.677 1.28-.038.456.162.899.53 1.17.44.286.959.423 1.482.393.903.01 1.79-.244 2.55-.731zM105.29 11.995c.763.362 1.4.945 1.828 1.674.466.837.697 1.785.667 2.742v8.695h-2.862v-8.228c.07-.848-.204-1.687-.758-2.332-.541-.512-1.267-.783-2.012-.75-.95-.02-1.86.374-2.496 1.08-.705.816-1.066 1.875-1.006 2.953v7.314h-2.87v-8.229c.072-.846-.198-1.686-.75-2.331-.54-.513-1.267-.784-2.012-.75-.583.003-1.155.154-1.664.439-.564.321-1.022.801-1.316 1.38-.36.733-.533 1.544-.503 2.36v7.14h-2.89v-13.44h2.543l.137 2.222c.42-.773 1.055-1.408 1.828-1.829.771-.42 1.636-.638 2.515-.63.957-.016 1.902.218 2.742.676.815.447 1.458 1.15 1.829 2.002.393-.858 1.058-1.562 1.893-2.002.843-.45 1.786-.683 2.742-.677.834-.007 1.658.17 2.414.521zM123.977 19.493h-9.81c.081 1.02.526 1.976 1.252 2.697.73.627 1.672.953 2.634.914.756.028 1.508-.136 2.185-.475.557-.282.986-.766 1.197-1.354l2.387.997c-1.006 2.072-2.929 3.109-5.77 3.109-1.832.112-3.627-.552-4.946-1.829-1.252-1.405-1.893-3.25-1.783-5.13-.114-1.866.499-3.704 1.71-5.128 1.275-1.27 3.031-1.936 4.828-1.829 1.717-.087 3.387.58 4.571 1.829 1.135 1.323 1.72 3.03 1.637 4.772.005.477-.026.954-.092 1.427zm-8.622-4.864c-.688.721-1.107 1.657-1.188 2.651h7.241c-.075-.986-.477-1.92-1.143-2.651-.638-.628-1.51-.96-2.404-.915-.924-.043-1.827.286-2.506.915zM130.469 21.202c-.042.482.06.966.292 1.39.29.292.698.433 1.106.384.307.008.613-.013.915-.064.313-.063.62-.158.914-.283l-.32 2.304c-.695.323-1.456.48-2.222.457-.97.085-1.932-.247-2.642-.915-.634-.812-.938-1.834-.85-2.861V5.678h2.87l-.063 15.524zM147.931 19.493h-9.819c.089 1.02.536 1.975 1.262 2.697.729.63 1.67.956 2.633.914.757.028 1.508-.136 2.185-.475.555-.283.98-.767 1.189-1.354l2.386.997c-.994 2.072-2.914 3.109-5.76 3.109-1.835.11-3.632-.553-4.956-1.829-1.268-1.398-1.926-3.244-1.828-5.13-.112-1.867.504-3.705 1.719-5.128 1.272-1.273 3.03-1.94 4.827-1.829 1.717-.085 3.387.583 4.572 1.829 1.134 1.323 1.72 3.03 1.636 4.772.02.476.005.953-.046 1.427zm-8.621-4.864c-.692.72-1.115 1.656-1.198 2.651h7.26c-.073-.989-.48-1.923-1.153-2.651-.64-.626-1.51-.957-2.404-.915-.924-.043-1.827.286-2.505.915zM162.441 13.294c1.244 1.406 1.881 3.246 1.774 5.12.109 1.877-.529 3.72-1.774 5.129-2.81 2.461-7.009 2.461-9.82 0-1.241-1.41-1.875-3.254-1.764-5.13-.11-1.872.524-3.712 1.765-5.12 2.81-2.46 7.009-2.46 9.82 0zm-7.707 1.627c-.718 1.018-1.063 2.25-.979 3.493-.092 1.254.254 2.501.979 3.529.723.783 1.74 1.228 2.807 1.228 1.066 0 2.083-.445 2.806-1.228.726-1.014 1.078-2.248.997-3.493.08-1.241-.273-2.472-.997-3.483-.723-.783-1.74-1.228-2.806-1.228s-2.084.445-2.807 1.228v-.046zM178.734 12.736c.984.978 1.488 2.338 1.38 3.721v8.695h-2.87v-7.78c0-2.36-.954-3.539-2.862-3.539-.964-.02-1.895.354-2.579 1.033-.778.865-1.165 2.013-1.07 3.173v7.113h-2.87v-13.44h2.542l.137 2.222c.405-.796 1.043-1.45 1.828-1.875.833-.42 1.756-.63 2.688-.612 1.347-.067 2.666.395 3.676 1.289z" transform="translate(-16 -20) translate(16 20)"/>
                <path fill="url(#xcpx37294a)" d="M11.255 28.517c-1.93-.375-4.425-1.646-4.425-3.895 0-1.28 1.032-2.322 2.313-2.332.632.001 1.176.45 1.298 1.07.037.199-.011.404-.133.566-.122.161-.306.265-.507.284-.304.014-.588.158-.777.397-.19.238-.266.547-.21.847.11.537.585.92 1.133.914 2.204-.073 3.758-2.743 1.61-5.065-.667-.729-1.62-1.13-2.606-1.097-2.382.107-4.258 2.068-4.26 4.452 0 2.926 2.504 5.139 6.4 6.071 0 0 12.424 3.173 16.685-8.878.695-2.03 1.038-4.163 1.015-6.308 0-6.071-5.22-10.926-11.246-11.465-.436-.038-.77-.404-.768-.841V.494c.003-.129-.046-.253-.135-.346-.09-.092-.212-.146-.34-.148C7.334.084.084 7.334 0 16.302c0 .127.051.25.142.34.092.089.215.138.343.135h13.44c1.181 0 2.139.958 2.139 2.14v5.577c.003 1.211-.532 2.361-1.461 3.139-.93.777-2.156 1.1-3.348.884M8.512 12.645c-.674.146-1.376-.063-1.86-.554-.485-.492-.683-1.197-.526-1.87.171-.743.754-1.323 1.5-1.49.712-.201 1.478.005 1.993.538.515.532.696 1.305.47 2.01-.226.706-.821 1.23-1.55 1.366h-.027z" transform="translate(-16 -20) translate(16 20)"/>
                <path fill="url(#2z3klylwmb)" d="M17.536 4.069c-.429-.037-.765-.384-.786-.814v6.482c-.006 1.091.575 2.101 1.52 2.645.945.545 2.11.54 3.051-.012l5.376-3.172c-2.189-2.93-5.519-4.795-9.161-5.13z" transform="translate(-16 -20) translate(16 20)"/>
            </g>
        </g>
    </g>
</svg>
