<svg xmlns="http://www.w3.org/2000/svg" width="136" height="24" viewBox="0 0 136 24">
    <defs>
        <linearGradient id="vmuv6rn84a" x1="26.888%" x2="76.129%" y1="12.286%" y2="93.261%">
            <stop offset="0%" stop-color="#5BB99A"/>
            <stop offset="82%" stop-color="#4D9A7F"/>
        </linearGradient>
        <linearGradient id="jfs67wkgfb" x1="33.916%" x2="68.382%" y1="29.625%" y2="109.602%">
            <stop offset="0%" stop-color="#4D9A7F"/>
            <stop offset="36%" stop-color="#4D9A7F" stop-opacity=".1"/>
        </linearGradient>
    </defs>
    <g fill="none" fill-rule="evenodd">
        <g fill-rule="nonzero">
            <g>
                <g>
                    <path fill="#102133" d="M36.549 18.075c-1.021.658-2.215.995-3.429.967-1.16.03-2.307-.255-3.319-.823-.945-.555-1.702-1.382-2.174-2.372-.53-1.14-.79-2.385-.76-3.641-.031-1.256.23-2.503.76-3.641.468-.998 1.226-1.832 2.174-2.394 1.004-.57 2.144-.858 3.298-.83 1.171-.04 2.33.248 3.347.83.916.565 1.607 1.43 1.954 2.448l-2.057.912c-.197-.688-.605-1.297-1.166-1.741-.588-.394-1.288-.59-1.995-.556-1.144-.045-2.245.441-2.983 1.317-.799 1.045-1.195 2.342-1.118 3.655-.071 1.31.314 2.604 1.09 3.661.734.87 1.834 1.342 2.97 1.276.77.027 1.53-.2 2.16-.645.614-.474 1.057-1.136 1.261-1.885l2.057.685c-.351 1.136-1.082 2.117-2.07 2.777zM49.2 9.552c.732.718 1.117 1.719 1.056 2.743v6.521h-2.153v-5.787c0-1.77-.686-2.654-2.153-2.654-.722-.011-1.417.271-1.927.782-.585.646-.882 1.502-.823 2.372v5.314h-2.133V4.258H43.2v6.172c.304-.589.783-1.068 1.371-1.372.594-.303 1.254-.454 1.92-.439.99-.047 1.959.287 2.709.933zM62.949 17.355l-.138 1.447c-.395.165-.82.247-1.248.24-.48.022-.957-.097-1.371-.343-.378-.27-.626-.684-.686-1.145-.337.495-.815.877-1.371 1.097-.651.273-1.352.406-2.057.391-.845.042-1.68-.2-2.373-.685-.606-.46-.945-1.189-.905-1.948.002-.794.38-1.54 1.022-2.009.864-.628 1.874-1.027 2.935-1.159l2.55-.439v-.541c.03-.541-.165-1.07-.541-1.461-.414-.367-.957-.553-1.509-.514-1.187-.099-2.276.662-2.592 1.81l-1.673-.885c.238-.8.767-1.482 1.481-1.913.83-.484 1.782-.722 2.743-.685 1.112-.075 2.216.235 3.127.877.786.65 1.213 1.637 1.145 2.654v4.546c-.014.202.047.403.171.563.16.136.368.2.576.178.24.005.48-.02.714-.076zm-4.464-.466c.501-.275.816-.8.822-1.371v-1.22l-2.187.438c-.55.078-1.079.272-1.55.57-.321.212-.513.574-.507.96-.029.34.122.673.398.877.329.214.718.317 1.11.295.678.007 1.343-.184 1.914-.549zM78.967 8.997c.573.27 1.05.708 1.371 1.254.35.628.523 1.34.5 2.058v6.52h-2.145v-6.17c.051-.636-.154-1.266-.57-1.75-.405-.384-.95-.587-1.508-.562-.712-.015-1.396.28-1.872.81-.53.612-.8 1.406-.754 2.214v5.486h-2.154v-6.171c.055-.635-.148-1.265-.562-1.749-.405-.384-.95-.587-1.508-.562-.438.002-.867.115-1.248.329-.424.241-.767.601-.988 1.035-.27.55-.4 1.158-.377 1.77v5.355h-2.167V8.784h1.906l.103 1.666c.316-.58.792-1.056 1.372-1.371.578-.316 1.227-.479 1.885-.473.718-.011 1.427.163 2.058.507.61.335 1.093.863 1.371 1.502.295-.644.794-1.171 1.42-1.502.632-.337 1.34-.512 2.057-.507.625-.006 1.243.128 1.81.39zM92.983 14.62h-7.358c.061.764.395 1.482.94 2.022.547.47 1.253.716 1.974.686.568.021 1.132-.102 1.64-.357.418-.21.739-.574.898-1.014l1.79.747c-.755 1.554-2.197 2.331-4.328 2.331-1.374.084-2.72-.413-3.71-1.371-.938-1.054-1.42-2.438-1.336-3.847-.086-1.4.373-2.778 1.282-3.847.956-.952 2.273-1.451 3.62-1.371 1.289-.066 2.541.435 3.429 1.371.851.993 1.29 2.274 1.227 3.58.004.357-.019.715-.068 1.07zm-6.466-3.649c-.517.542-.831 1.244-.892 1.989h5.431c-.056-.74-.358-1.44-.857-1.989-.479-.47-1.133-.719-1.804-.685-.692-.033-1.37.214-1.878.685zM97.851 15.902c-.03.361.045.724.22 1.042.217.219.523.325.83.288.23.006.459-.01.685-.048.236-.047.465-.118.686-.213l-.24 1.728c-.521.243-1.092.36-1.666.343-.728.065-1.45-.185-1.982-.685-.476-.61-.703-1.376-.638-2.147V4.258H97.9l-.048 11.644zM110.949 14.62h-7.365c.067.764.402 1.48.946 2.022.547.472 1.253.718 1.975.686.568.021 1.131-.102 1.639-.357.416-.211.735-.575.891-1.014l1.79.747c-.745 1.554-2.185 2.331-4.32 2.331-1.376.083-2.724-.414-3.716-1.371-.952-1.048-1.445-2.433-1.372-3.847-.084-1.4.378-2.78 1.29-3.847.954-.955 2.272-1.454 3.62-1.371 1.288-.064 2.54.437 3.428 1.371.851.993 1.29 2.274 1.228 3.58.015.357.004.714-.034 1.07zm-6.467-3.649c-.518.54-.836 1.243-.898 1.989h5.445c-.055-.742-.36-1.443-.864-1.989-.48-.469-1.134-.717-1.804-.685-.693-.033-1.37.214-1.879.685zM121.83 9.97c.934 1.055 1.412 2.435 1.331 3.84.082 1.408-.396 2.79-1.33 3.847-2.108 1.846-5.257 1.846-7.365 0-.931-1.057-1.407-2.44-1.323-3.847-.083-1.404.393-2.784 1.323-3.84 2.108-1.846 5.257-1.846 7.365 0zm-5.78 1.22c-.538.764-.797 1.689-.733 2.62-.07.94.19 1.876.733 2.647.543.587 1.306.921 2.105.921.8 0 1.563-.334 2.106-.92.543-.762.808-1.687.747-2.62.06-.931-.205-1.854-.747-2.613-.543-.587-1.306-.92-2.106-.92-.799 0-1.562.333-2.105.92v-.034zM134.05 9.552c.738.733 1.117 1.754 1.036 2.79v6.522h-2.153v-5.835c0-1.77-.716-2.654-2.147-2.654-.723-.015-1.42.265-1.933.775-.584.648-.874 1.51-.803 2.38v5.334h-2.153V8.784h1.906l.103 1.666c.304-.596.783-1.087 1.372-1.405.624-.316 1.316-.474 2.016-.46 1.01-.05 2 .297 2.756.967z" transform="translate(-16 -2264) translate(0 2240) translate(16 24)"/>
                    <path fill="url(#vmuv6rn84a)" d="M8.441 21.387c-1.447-.28-3.319-1.234-3.319-2.92 0-.961.775-1.742 1.735-1.75.475.002.882.338.974.803.027.15-.009.303-.1.424-.091.122-.23.199-.38.214-.228.01-.441.118-.583.297-.142.179-.2.41-.158.635.083.403.44.691.85.686 1.653-.055 2.819-2.057 1.207-3.799-.5-.546-1.214-.847-1.954-.823-1.786.08-3.193 1.552-3.195 3.34 0 2.194 1.879 3.853 4.8 4.553 0 0 9.319 2.38 12.514-6.658.521-1.523.779-3.123.761-4.732 0-4.553-3.915-8.194-8.434-8.599-.327-.028-.577-.303-.576-.63V.37c.002-.096-.035-.19-.102-.259-.067-.07-.158-.11-.255-.111C5.5.063.063 5.5 0 12.226c0 .096.038.188.107.255.068.067.16.104.256.102h10.08c.887 0 1.605.718 1.605 1.604v4.183c.003.909-.4 1.772-1.096 2.355-.697.583-1.617.825-2.51.662M6.383 9.483c-.506.11-1.032-.046-1.395-.415-.364-.369-.512-.898-.395-1.402.129-.558.566-.992 1.125-1.117.534-.152 1.11.003 1.495.402.387.4.522.98.353 1.509-.17.529-.616.922-1.162 1.023h-.021z" transform="translate(-16 -2264) translate(0 2240) translate(16 24)"/>
                    <path fill="url(#jfs67wkgfb)" d="M13.152 3.051c-.322-.027-.574-.287-.59-.61v4.862c-.004.818.432 1.575 1.14 1.984.71.408 1.583.405 2.289-.01l4.032-2.379c-1.642-2.197-4.14-3.596-6.871-3.847z" transform="translate(-16 -2264) translate(0 2240) translate(16 24)"/>
                </g>
            </g>
        </g>
    </g>
</svg>
