<svg xmlns="http://www.w3.org/2000/svg" width="33" height="35" viewBox="0 0 33 35">
    <defs>
        <linearGradient id="n2o0lnly5a" x1="26.815%" x2="76.193%" y1="12.265%" y2="93.342%">
            <stop offset="0%" stop-color="#5CB99B"/>
            <stop offset="81.77%" stop-color="#4E9A7F"/>
        </linearGradient>
        <linearGradient id="vvka4jt9qb" x1="33.961%" x2="68.406%" y1="29.539%" y2="109.645%">
            <stop offset="0%" stop-color="#4E9A7F"/>
            <stop offset="36.11%" stop-color="#4E9A7F" stop-opacity=".1"/>
        </linearGradient>
    </defs>
    <g fill="none" fill-rule="evenodd">
        <g fill-rule="nonzero">
            <g>
                <path fill="url(#n2o0lnly5a)" d="M11.123 28.186c-1.907-.359-4.365-1.626-4.365-3.84 0-1.268 1.037-2.304 2.304-2.304.64 0 1.165.46 1.28 1.062.077.41-.217.806-.627.832-.614.038-1.088.589-.973 1.229.077.499.615.883 1.114.87 2.189-.064 3.725-2.739 1.6-5.005-.666-.716-1.613-1.126-2.586-1.088-2.342.103-4.21 2.036-4.21 4.404 0 2.892 2.482 5.068 6.297 6.003 0 0 12.288 3.136 16.499-8.781.614-1.728 1.024-3.776 1.024-6.208 0-6.003-5.171-10.803-11.123-11.34-.435-.04-.755-.398-.755-.833V.474c0-.256-.218-.474-.474-.474C7.258.051.064 7.245 0 16.102c0 .256.218.474.474.474h13.299c1.165 0 2.112.947 2.112 2.112v5.517c0 2.521-2.279 4.429-4.762 3.98M8.448 12.494c-1.446.32-2.714-.947-2.394-2.394.167-.73.756-1.318 1.485-1.485 1.447-.32 2.714.948 2.394 2.394-.167.73-.755 1.318-1.485 1.485z" transform="translate(2 2)"/>
                <path fill="url(#vvka4jt9qb)" d="M17.344 4.02c-.435-.04-.768-.385-.78-.807v6.413c0 2.316 2.508 3.763 4.518 2.61l5.312-3.135c-2.1-2.829-5.364-4.749-9.05-5.082z" transform="translate(2 2)"/>
            </g>
        </g>
    </g>
</svg>
