<svg xmlns="http://www.w3.org/2000/svg" xmlns:xlink="http://www.w3.org/1999/xlink" width="32" height="32" viewBox="0 0 32 32">
    <defs>
        <path id="qfg0nz5uda" d="M25.333 14.667c.361 0 .674.132.938.396.264.263.396.576.396.937 0 .361-.132.674-.396.938-.264.263-.577.395-.938.395h-8v8c0 .361-.132.674-.395.938-.264.264-.577.396-.938.396s-.674-.132-.938-.396c-.263-.264-.395-.577-.395-.938v-8h-8c-.361 0-.674-.132-.938-.395-.264-.264-.396-.577-.396-.938s.132-.674.396-.938c.264-.263.577-.395.938-.395h8v-8c0-.361.132-.674.396-.938.263-.264.576-.396.937-.396.361 0 .674.132.938.396.263.264.395.577.395.938v8h8z"/>
    </defs>
    <g fill="none" fill-rule="evenodd">
        <g>
            <g>
                <g transform="translate(-268 -276) translate(0 256) translate(268 20)">
                    <mask id="po16rfidqb" fill="#fff">
                        <use xlink:href="#qfg0nz5uda"/>
                    </mask>
                    <path fill="#000" d="M0 0H32V32H0z" mask="url(#po16rfidqb)"/>
                </g>
            </g>
        </g>
    </g>
</svg>
