<svg xmlns="http://www.w3.org/2000/svg" width="72" height="72" viewBox="0 0 72 72">
    <g fill="none" fill-rule="evenodd">
        <g>
            <g>
                <g>
                    <g>
                        <g>
                            <path fill="#91CDFF" d="M36 63.616C20.747 63.616 8.384 51.252 8.384 36 8.384 20.748 20.747 8.384 36 8.384S63.617 20.748 63.617 36c0 15.252-12.364 27.616-27.617 27.616z" opacity=".32" transform="translate(-371 -1863) translate(0 1687) translate(100 160) translate(210) translate(61 16)"/>
                            <path stroke="#112133" d="M71.507 36c0 19.61-15.897 35.507-35.507 35.507S.494 55.61.494 36 16.39.493 36 .493 71.507 16.39 71.507 36z" transform="translate(-371 -1863) translate(0 1687) translate(100 160) translate(210) translate(61 16)"/>
                            <g>
                                <path fill="#112133" d="M9.683 25.823c-2.17 0-3.946-1.774-3.946-3.945 0-2.17 1.776-3.945 3.946-3.945s3.945 1.775 3.945 3.945-1.775 3.945-3.945 3.945m8.966-6.455H16.62c-.096-.216-.195-.424-.302-.606l1.4-1.4c.256-.251.277-.703.045-.976l-2.15-2.51c-.241-.287-.722-.33-1.01-.09l-1.771 1.48c-.19-.115-.412-.212-.638-.314v-2.04c0-.375-.343-.718-.718-.718H7.822c-.352.034-.652.363-.65.718v2.04c-.227.102-.447.2-.638.314l-1.771-1.48c-.288-.24-.768-.197-1.01.09l-2.15 2.51c-.232.273-.211.725.044.976l1.4 1.4c-.107.182-.205.39-.302.606H.716c-.376 0-.716.341-.716.717v3.575c0 .376.34.717.716.717h2.029c.098.218.195.423.303.606l-1.4 1.4c-.256.252-.277.703-.045.976l2.15 2.51c.242.288.722.33 1.01.09l1.76-1.468c.193.116.418.21.65.314v2.04c0 .375.342.716.717.716h3.586c.375 0 .718-.34.718-.717v-2.04c.23-.103.455-.197.65-.313l1.76 1.468c.287.24.768.198 1.008-.09l2.151-2.51c.232-.273.211-.724-.044-.976l-1.4-1.4c.107-.183.205-.388.301-.606h2.029c.376 0 .717-.341.717-.717v-3.575c0-.376-.341-.717-.717-.717" transform="translate(-371 -1863) translate(0 1687) translate(100 160) translate(210) translate(61 16) translate(20.22 20.22)"/>
                                <path fill="#5BB99A" d="M23.67 11.119c-1.775 0-3.227-1.454-3.227-3.228 0-1.774 1.452-3.228 3.228-3.228 1.774 0 3.227 1.454 3.227 3.228 0 1.774-1.453 3.228-3.227 3.228m7.172-5.38h-1.647c-.024-.08-.06-.165-.09-.247l1.12-1.3c.236-.27.22-.721-.033-.976l-1.85-1.849c-.25-.255-.701-.276-.974-.044l-1.3 1.11c-.095-.041-.197-.079-.291-.113V.717c0-.375-.343-.717-.718-.717h-2.847v.001c-.352.033-.652.363-.65.717v1.603c-.095.033-.196.07-.292.111l-1.299-1.11c-.273-.23-.724-.21-.975.046l-1.85 1.85c-.252.253-.268.704-.033.975l1.12 1.299c-.03.083-.066.167-.09.246h-1.647c-.375 0-.717.343-.717.718v2.87c0 .375.342.717.717.717h1.569c.033.165.1.333.157.515l-1.153 1.12c-.27.267-.27.755 0 1.02l1.793 1.794c.265.262.742.262 1.008 0l1.042-1.042c.189.11.39.196.605.291v1.323c0 .375.342.717.718.717h2.869c.376 0 .718-.342.718-.717V13.74c.215-.095.416-.182.605-.292l1.042 1.043c.265.262.743.262 1.01 0l1.791-1.793c.27-.267.27-.755 0-1.02l-1.12-1.12c.053-.185.12-.355.146-.516h1.546c.376 0 .717-.342.718-.718v-2.87c0-.374-.342-.717-.718-.717" transform="translate(-371 -1863) translate(0 1687) translate(100 160) translate(210) translate(61 16) translate(20.22 20.22)"/>
                            </g>
                        </g>
                    </g>
                </g>
            </g>
        </g>
    </g>
</svg>
