<svg xmlns="http://www.w3.org/2000/svg" width="72" height="72" viewBox="0 0 72 72">
    <g fill="none" fill-rule="evenodd">
        <g>
            <g>
                <g>
                    <g>
                        <path fill="#91CDFF" d="M36 64C20.535 64 8 51.464 8 36S20.535 8 36 8c15.464 0 28 12.536 28 28S51.464 64 36 64z" opacity=".32" transform="translate(-161 -1863) translate(0 1687) translate(100 160) translate(61 16)"/>
                        <path stroke="#112133" d="M68.95 49.253C63.7 62.298 50.926 71.506 36 71.506 16.39 71.506.495 55.61.495 36 .494 16.39 16.39.493 36 .493c19.61 0 35.506 15.897 35.506 35.506" transform="translate(-161 -1863) translate(0 1687) translate(100 160) translate(61 16)"/>
                        <path fill="#112133" d="M63.908 50.625L64.302 51.53 68.758 49.582 70.377 54.168 71.307 53.839 69.334 48.253z" transform="translate(-161 -1863) translate(0 1687) translate(100 160) translate(61 16)"/>
                        <g>
                            <path fill="#FFF" d="M39.452 13.18c-7.054 9.953-13.835 13.196-19.726 13.12C13.835 26.376 7.053 23.133 0 13.18v-.057C7.053 3.17 13.835-.074 19.726.001c5.89-.075 12.672 3.168 19.726 13.122v.056z" transform="translate(-161 -1863) translate(0 1687) translate(100 160) translate(61 16) translate(16 23)"/>
                            <path fill="#5BB99A" d="M29.589 13.151c0 5.447-4.416 9.863-9.863 9.863-5.448 0-9.863-4.416-9.863-9.863 0-5.447 4.415-9.863 9.863-9.863 5.447 0 9.863 4.416 9.863 9.863" transform="translate(-161 -1863) translate(0 1687) translate(100 160) translate(61 16) translate(16 23)"/>
                            <path fill="#112133" d="M24.658 13.151c0 2.724-2.209 4.931-4.932 4.931-2.724 0-4.931-2.207-4.931-4.931 0-2.723 2.207-4.932 4.931-4.932 2.723 0 4.932 2.209 4.932 4.932" transform="translate(-161 -1863) translate(0 1687) translate(100 160) translate(61 16) translate(16 23)"/>
                        </g>
                    </g>
                </g>
            </g>
        </g>
    </g>
</svg>
